<svg width="146" height="15" viewBox="0 0 146 15" fill="none" xmlns="http://www.w3.org/2000/svg">
<path d="M4.12926 14L0.319602 0.909091H3.81605L5.79119 9.48722H5.89986L8.15625 0.909091H11.0071L13.2635 9.50639H13.3722L15.3537 0.909091H18.8438L15.0405 14H11.9915L9.63281 6.06108H9.53054L7.17188 14H4.12926ZM31.7333 7.45455C31.7333 8.89489 31.4563 10.1158 30.9023 11.1172C30.3484 12.1186 29.5984 12.8793 28.6523 13.3991C27.7106 13.919 26.6538 14.179 25.4819 14.179C24.3058 14.179 23.2468 13.9169 22.305 13.3928C21.3633 12.8686 20.6154 12.108 20.0614 11.1108C19.5117 10.1094 19.2369 8.89062 19.2369 7.45455C19.2369 6.0142 19.5117 4.79332 20.0614 3.7919C20.6154 2.79048 21.3633 2.02983 22.305 1.50994C23.2468 0.990056 24.3058 0.730113 25.4819 0.730113C26.6538 0.730113 27.7106 0.990056 28.6523 1.50994C29.5984 2.02983 30.3484 2.79048 30.9023 3.7919C31.4563 4.79332 31.7333 6.0142 31.7333 7.45455ZM28.4989 7.45455C28.4989 6.60227 28.3775 5.8821 28.1346 5.29403C27.896 4.70597 27.5508 4.26065 27.0991 3.9581C26.6516 3.65554 26.1126 3.50426 25.4819 3.50426C24.8555 3.50426 24.3164 3.65554 23.8647 3.9581C23.413 4.26065 23.0657 4.70597 22.8228 5.29403C22.5842 5.8821 22.4648 6.60227 22.4648 7.45455C22.4648 8.30682 22.5842 9.02699 22.8228 9.61506C23.0657 10.2031 23.413 10.6484 23.8647 10.951C24.3164 11.2536 24.8555 11.4048 25.4819 11.4048C26.1126 11.4048 26.6516 11.2536 27.0991 10.951C27.5508 10.6484 27.896 10.2031 28.1346 9.61506C28.3775 9.02699 28.4989 8.30682 28.4989 7.45455ZM45.9364 7.45455C45.9364 8.89489 45.6594 10.1158 45.1055 11.1172C44.5515 12.1186 43.8015 12.8793 42.8555 13.3991C41.9137 13.919 40.8569 14.179 39.685 14.179C38.5089 14.179 37.4499 13.9169 36.5082 13.3928C35.5664 12.8686 34.8185 12.108 34.2646 11.1108C33.7148 10.1094 33.44 8.89062 33.44 7.45455C33.44 6.0142 33.7148 4.79332 34.2646 3.7919C34.8185 2.79048 35.5664 2.02983 36.5082 1.50994C37.4499 0.990056 38.5089 0.730113 39.685 0.730113C40.8569 0.730113 41.9137 0.990056 42.8555 1.50994C43.8015 2.02983 44.5515 2.79048 45.1055 3.7919C45.6594 4.79332 45.9364 6.0142 45.9364 7.45455ZM42.7021 7.45455C42.7021 6.60227 42.5806 5.8821 42.3377 5.29403C42.0991 4.70597 41.7539 4.26065 41.3022 3.9581C40.8548 3.65554 40.3157 3.50426 39.685 3.50426C39.0586 3.50426 38.5195 3.65554 38.0678 3.9581C37.6161 4.26065 37.2688 4.70597 37.0259 5.29403C36.7873 5.8821 36.668 6.60227 36.668 7.45455C36.668 8.30682 36.7873 9.02699 37.0259 9.61506C37.2688 10.2031 37.6161 10.6484 38.0678 10.951C38.5195 11.2536 39.0586 11.4048 39.685 11.4048C40.3157 11.4048 40.8548 11.2536 41.3022 10.951C41.7539 10.6484 42.0991 10.2031 42.3377 9.61506C42.5806 9.02699 42.7021 8.30682 42.7021 7.45455ZM47.739 14V12.1974L54.0991 3.47869H47.7454V0.909091H58.1005V2.71165L51.7404 11.4304H58.0941V14H47.739ZM63.4746 3.47869V0.909091H74.5392V3.47869H70.5698V14H67.4505V3.47869H63.4746ZM76.0845 14V0.909091H81.4922C82.4723 0.909091 83.3182 1.08594 84.0298 1.43963C84.7457 1.78906 85.2976 2.2919 85.6854 2.94815C86.0732 3.60014 86.267 4.37358 86.267 5.26847C86.267 6.17614 86.0689 6.94744 85.6726 7.58239C85.2763 8.21307 84.7138 8.6946 83.9851 9.02699C83.2564 9.35511 82.3935 9.51918 81.3963 9.51918H77.9766V7.02628H80.8082C81.2855 7.02628 81.6839 6.96449 82.0036 6.84091C82.3274 6.71307 82.5724 6.52131 82.7386 6.26562C82.9048 6.00568 82.9879 5.6733 82.9879 5.26847C82.9879 4.86364 82.9048 4.52912 82.7386 4.26491C82.5724 3.99645 82.3274 3.79616 82.0036 3.66406C81.6797 3.5277 81.2813 3.45952 80.8082 3.45952H79.2486V14H76.0845ZM83.4545 8.01705L86.7145 14H83.2628L80.0668 8.01705H83.4545ZM90.8342 14H87.4336L91.8505 0.909091H96.0629L100.48 14H97.0792L94.0046 4.20739H93.9023L90.8342 14ZM90.3803 8.84801H97.4883V11.2514H90.3803V8.84801ZM106.728 14H101.889V0.909091H106.722C108.055 0.909091 109.204 1.17116 110.167 1.69531C111.134 2.2152 111.88 2.9652 112.404 3.94531C112.928 4.92116 113.19 6.08878 113.19 7.44815C113.19 8.81179 112.928 9.98366 112.404 10.9638C111.884 11.9439 111.141 12.696 110.173 13.2202C109.206 13.7401 108.058 14 106.728 14ZM105.053 11.3026H106.607C107.339 11.3026 107.96 11.179 108.467 10.9318C108.978 10.6804 109.364 10.2734 109.624 9.71094C109.888 9.14418 110.02 8.38991 110.02 7.44815C110.02 6.50639 109.888 5.75639 109.624 5.19815C109.359 4.63565 108.969 4.23082 108.454 3.98366C107.942 3.73224 107.312 3.60653 106.562 3.60653H105.053V11.3026ZM118.202 0.909091V14H115.038V0.909091H118.202ZM131.329 0.909091V14H128.645L123.435 6.4446H123.352V14H120.188V0.909091H122.911L128.063 8.4517H128.172V0.909091H131.329ZM141.91 5.18537C141.837 4.9169 141.731 4.6804 141.59 4.47585C141.45 4.26705 141.277 4.0902 141.072 3.94531C140.868 3.80043 140.634 3.69176 140.369 3.61932C140.105 3.54261 139.815 3.50426 139.5 3.50426C138.865 3.50426 138.315 3.65767 137.851 3.96449C137.391 4.27131 137.035 4.71875 136.783 5.30682C136.532 5.89062 136.406 6.60014 136.406 7.43537C136.406 8.27486 136.528 8.99077 136.771 9.5831C137.013 10.1754 137.365 10.6271 137.825 10.9382C138.286 11.2493 138.844 11.4048 139.5 11.4048C140.08 11.4048 140.57 11.3111 140.97 11.1236C141.375 10.9318 141.682 10.6612 141.891 10.3118C142.099 9.96236 142.204 9.55114 142.204 9.07812L142.792 9.14844H139.609V6.84091H145.253V8.57315C145.253 9.74503 145.004 10.7486 144.505 11.5838C144.011 12.419 143.329 13.0604 142.46 13.5078C141.594 13.9553 140.599 14.179 139.474 14.179C138.226 14.179 137.129 13.9084 136.183 13.3672C135.237 12.826 134.499 12.0547 133.971 11.0533C133.442 10.0476 133.178 8.8544 133.178 7.47372C133.178 6.39986 133.338 5.44744 133.658 4.61648C133.977 3.78125 134.423 3.07386 134.994 2.49432C135.569 1.91477 136.234 1.47585 136.988 1.17756C137.746 0.879261 138.563 0.730113 139.436 0.730113C140.195 0.730113 140.9 0.838778 141.552 1.05611C142.208 1.27344 142.788 1.58026 143.29 1.97656C143.798 2.37287 144.209 2.84375 144.524 3.3892C144.839 3.93466 145.036 4.53338 145.112 5.18537H141.91Z" fill="white"/>
</svg>
